<?xml version="1.0" encoding="UTF-8"?>
<svg width="12px" height="14px" viewBox="0 0 12 14" version="1.1" xmlns="http://www.w3.org/2000/svg" xmlns:xlink="http://www.w3.org/1999/xlink">
    <!-- Generator: Sketch 58 (84663) - https://sketch.com -->
    <title>location-fill</title>
    <desc>Created with Sketch.</desc>
    <g id="1.0-UI" stroke="none" stroke-width="1" fill="none" fill-rule="evenodd">
        <g id="时间轴" transform="translate(-113.000000, -191.000000)" fill-rule="nonzero">
            <g id="part-1" transform="translate(24.000000, 134.000000)">
                <g id="card1" transform="translate(16.000000, 38.000000)">
                    <g id="地点" transform="translate(72.000000, 16.000000)">
                        <g id="location-fill" transform="translate(0.000000, 3.000000)">
                            <rect id="矩形" fill="#000000" opacity="0" x="0" y="0" width="14" height="14"></rect>
                            <path d="M7,4.47070312 C6.59121094,4.47070312 6.20703125,4.62929688 5.9171875,4.91914062 C5.62871094,5.20898438 5.46875,5.59316406 5.46875,6.00195312 C5.46875,6.41074219 5.62871094,6.79492188 5.9171875,7.08476563 C6.20703125,7.37324219 6.59121094,7.53320312 7,7.53320312 C7.40878906,7.53320312 7.79296875,7.37324219 8.0828125,7.08476563 C8.37265625,6.79492188 8.53125,6.41074219 8.53125,6.00195312 C8.53125,5.59316406 8.37265625,5.20898438 8.0828125,4.91914062 C7.79296875,4.62929688 7.40878906,4.47070312 7,4.47070312 Z M11.6839844,3.95253906 C11.4269531,3.35917969 11.0591797,2.82734375 10.5916016,2.37070313 C10.1240234,1.9140625 9.58125,1.55722656 8.97558594,1.30703125 C8.34941406,1.04726562 7.68496094,0.916015625 7,0.916015625 C6.31503906,0.916015625 5.65058594,1.04726562 5.02441406,1.30566406 C4.41875,1.55585937 3.87597656,1.9140625 3.40839844,2.36933594 C2.94082031,2.82597656 2.57304688,3.35917969 2.31601563,3.95117187 C2.04941406,4.56640625 1.9140625,5.21992187 1.9140625,5.89257812 C1.9140625,6.8578125 2.14511719,7.81894531 2.59902344,8.74589844 C2.9640625,9.49101562 3.47402344,10.2169922 4.11660156,10.9074219 C5.21445313,12.0859375 6.365625,12.8064453 6.69238281,12.9992188 C6.78671875,13.0552734 6.89335938,13.0826172 6.99863281,13.0826172 C7.10527344,13.0826172 7.21054687,13.0552734 7.30488281,12.9992188 C7.63164062,12.8064453 8.7828125,12.0859375 9.88066406,10.9074219 C10.5232422,10.2183594 11.0332031,9.49101562 11.3982422,8.74589844 C11.8548828,7.8203125 12.0859375,6.86054687 12.0859375,5.89394531 C12.0859375,5.22128906 11.9505859,4.56777344 11.6839844,3.95253906 Z M7,8.40820312 C5.67109375,8.40820312 4.59375,7.33085938 4.59375,6.00195312 C4.59375,4.67304687 5.67109375,3.59570312 7,3.59570312 C8.32890625,3.59570312 9.40625,4.67304688 9.40625,6.00195312 C9.40625,7.33085938 8.32890625,8.40820312 7,8.40820312 Z" id="形状" fill="#476BE1"></path>
                        </g>
                    </g>
                </g>
            </g>
        </g>
    </g>
</svg>