<?xml version="1.0" encoding="UTF-8"?>
<svg width="18px" height="18px" viewBox="0 0 18 18" version="1.1" xmlns="http://www.w3.org/2000/svg" xmlns:xlink="http://www.w3.org/1999/xlink">
    <!-- Generator: Sketch 58 (84663) - https://sketch.com -->
    <title>搜索</title>
    <desc>Created with Sketch.</desc>
    <g id="1.0-UI" stroke="none" stroke-width="1" fill="none" fill-rule="evenodd">
        <g id="新建" transform="translate(-327.000000, -516.000000)" fill-rule="nonzero">
            <g id="搜索" transform="translate(24.000000, 515.000000)">
                <g transform="translate(303.000000, 1.000000)">
                    <rect id="矩形" fill="#000000" opacity="0" x="0" y="0" width="18" height="18"></rect>
                    <path d="M17.25,16.455 L13.875,13.0575 C16.5311645,9.97376731 16.2725771,5.34147889 13.2896997,2.57253336 C10.3068222,-0.196412163 5.66812341,-0.110176653 2.79022338,2.76772338 C-0.0876766532,5.64562341 -0.173912163,10.2843222 2.59503336,13.2671997 C5.36397889,16.2500771 9.99626731,16.5086645 13.08,13.8525 L16.41,17.25 C16.6295332,17.4819596 16.9955404,17.4920332 17.2275,17.2725 C17.4594596,17.0529668 17.4695332,16.6869596 17.25,16.455 Z M1.74749999,8.13749999 C1.74749999,4.5918319 4.6218319,1.71749999 8.1675,1.71749999 C11.7131681,1.71749999 14.5875,4.5918319 14.5875,8.13749999 C14.5875,11.6831681 11.7131681,14.5575 8.1675,14.5575 C4.62354521,14.5533671 1.75163288,11.6814548 1.74749999,8.13749999 L1.74749999,8.13749999 Z" id="形状" fill="#979CA8"></path>
                </g>
            </g>
        </g>
    </g>
</svg>