<?xml version="1.0" encoding="UTF-8"?>
<svg width="25px" height="36px" viewBox="0 0 25 36" version="1.1" xmlns="http://www.w3.org/2000/svg" xmlns:xlink="http://www.w3.org/1999/xlink">
    <!-- Generator: Sketch 58 (84663) - https://sketch.com -->
    <title>等待</title>
    <desc>Created with Sketch.</desc>
    <g id="加载" stroke="none" stroke-width="1" fill="none" fill-rule="evenodd">
        <g id="全局加载-导入照片加载" transform="translate(-175.000000, -213.000000)" fill-rule="nonzero">
            <g id="等待弹框" transform="translate(63.000000, 184.000000)">
                <g id="等待" transform="translate(106.000000, 28.000000)">
                    <rect id="矩形" fill="#FFFFFF" opacity="0" x="0" y="0" width="38" height="38"></rect>
                    <path d="M30.6533333,36.7966667 L6.84,36.7333333 L6.84,27.55 L12.9833333,19.0633333 L6.84,10.5766667 L6.84,1.33 L30.6533333,1.33 L30.6533333,10.5766667 L24.3833333,19.0633333 L30.6533333,27.55 L30.6533333,36.7966667 L30.6533333,36.7966667 Z M9.37333335,34.2 L28.12,34.2633333 L28.12,28.3733333 L21.2166667,19.0633333 L28.12,9.75333335 L28.12,3.86333335 L9.37333335,3.86333335 L9.37333335,9.75333335 L16.0866667,19.0633333 L9.37333335,28.3733333 L9.37333335,34.2 Z" id="形状" fill="#FFFFFF"></path>
                    <polygon id="路径" fill="#FFC853" points="12.0333333 29.7666667 24.7 29.7666667 24.7 32.3 12.0333333 32.3"></polygon>
                </g>
            </g>
        </g>
    </g>
</svg>