<?xml version="1.0" encoding="UTF-8"?>
<svg width="12px" height="19px" viewBox="0 0 12 19" version="1.1" xmlns="http://www.w3.org/2000/svg" xmlns:xlink="http://www.w3.org/1999/xlink">
    <!-- Generator: Sketch 58 (84663) - https://sketch.com -->
    <title>定位</title>
    <desc>Created with Sketch.</desc>
    <g id="1.0-UI" stroke="none" stroke-width="1" fill="none" fill-rule="evenodd">
        <g id="新建" transform="translate(-28.000000, -573.000000)" fill-rule="nonzero">
            <g id="位置1" transform="translate(24.000000, 566.000000)">
                <g id="定位" transform="translate(0.000000, 7.000000)">
                    <rect id="矩形" fill="#000000" opacity="0" x="0" y="0" width="20" height="20"></rect>
                    <path d="M5.25,8.04166016 C5,8.04166016 4.79166016,7.91666016 4.66666016,7.66666016 C4.41666016,7.08333984 4.29166016,6.41666016 4.29166016,5.79166016 C4.29166016,2.95833984 6.79166016,0.666660156 9.83333984,0.666660156 C12.8750195,0.666660156 15.375,2.95833984 15.375,5.79166016 C15.375,6.33333984 15.2916602,6.875 15.0833398,7.41666016 C14.9583398,7.75 14.625,7.91666016 14.2916602,7.79166016 C13.9583398,7.66666016 13.7916602,7.33333984 13.9166602,7 C14.0416602,6.625 14.125,6.20833984 14.125,5.79166016 C14.125,3.66666016 12.2083398,1.91666016 9.83333984,1.91666016 C7.45833984,1.91666016 5.54166016,3.66666016 5.54166016,5.79166016 C5.54166016,6.29166016 5.625,6.75 5.83333984,7.16666016 C5.95833984,7.5 5.83333984,7.83333984 5.5,8 C5.41666016,8 5.33333984,8.04166016 5.25,8.04166016 Z" id="路径" fill="#543E3E"></path>
                    <path d="M9.83333984,18.625 C7,18.625 4.875,17.4583398 4.875,15.875 C4.875,14.5833398 6.29166016,13.5416602 8.5,13.25 C8.83333984,13.2083398 9.16666016,13.4583398 9.20833984,13.7916602 C9.25,14.125 9,14.4583398 8.66666016,14.5 C7.04166016,14.75 6.08333984,15.4166602 6.08333984,15.9166602 C6.08333984,16.5416602 7.5,17.4166602 9.79166016,17.4166602 C12.0833203,17.4166602 13.5,16.5416602 13.5,15.9166602 C13.5,15.4583398 12.75,14.875 11.2916602,14.5833398 C10.9583398,14.5 10.75,14.1666602 10.7916602,13.8333398 C10.875,13.5 11.2083398,13.2916602 11.5416602,13.3333398 C13.5,13.7083398 14.75,14.7083398 14.75,15.9166602 C14.7916602,17.4583398 12.6666602,18.625 9.83333984,18.625 Z" id="路径" fill="#476BE1"></path>
                    <path d="M9.83333984,15.875 C9.375,15.875 8.91666016,15.6666602 8.66666016,15.3333398 L8.625,15.25 L4.70833984,7.70833984 C4.54166016,7.41666016 4.66666016,7.04166016 4.95833984,6.875 C5.25,6.70833984 5.625,6.83333984 5.79166016,7.125 L9.70833984,14.5833398 L10,14.5833398 L13.9583398,6.875 C14.125,6.58333984 14.5,6.45833984 14.7916602,6.625 C15.0833203,6.79166016 15.2083398,7.16666016 15.0416602,7.45833984 L10.9583398,15.2916602 C10.75,15.6666602 10.3333398,15.875 9.83333984,15.875 Z" id="路径" fill="#543E3E"></path>
                    <path d="M9.875,8.41666016 C8.58333984,8.41666016 7.54166016,7.375 7.54166016,6.08333984 C7.54166016,4.79167969 8.58333984,3.75 9.875,3.75 C11.1666602,3.75 12.2083398,4.79166016 12.2083398,6.08333984 C12.2083398,7.37501953 11.1666602,8.41666016 9.875,8.41666016 Z M9.875,5.04166016 C9.29166016,5.04166016 8.79166016,5.54166016 8.79166016,6.125 C8.79166016,6.70833984 9.29166016,7.20833984 9.875,7.20833984 C10.4583398,7.20833984 10.9583398,6.70833984 10.9583398,6.125 C10.9583398,5.54166016 10.5,5.04166016 9.875,5.04166016 Z" id="形状" fill="#476BE1"></path>
                </g>
            </g>
        </g>
    </g>
</svg>