<?xml version="1.0" encoding="UTF-8"?>
<svg width="101px" height="72px" viewBox="0 0 101 72" version="1.1" xmlns="http://www.w3.org/2000/svg" xmlns:xlink="http://www.w3.org/1999/xlink">
    <!-- Generator: Sketch 58 (84663) - https://sketch.com -->
    <title>编组 5</title>
    <desc>Created with Sketch.</desc>
    <g id="1.0-UI" stroke="none" stroke-width="1" fill="none" fill-rule="evenodd">
        <g id="新建-地点未获取成功" transform="translate(-137.000000, -580.000000)">
            <g id="编组-6" transform="translate(118.000000, 580.000000)">
                <g id="编组-5" transform="translate(19.000000, 0.000000)">
                    <g id="搜索，放大镜" opacity="0.500300155" transform="translate(0.000000, 12.000000)" fill-rule="nonzero">
                        <rect id="矩形" fill="#000000" opacity="0" x="0" y="0" width="60" height="60"></rect>
                        <path d="M6.98511252,33.6767092 C6.98511252,47.8335603 18.4615078,59.3099556 32.6183588,59.3099556 C46.7752099,59.3099556 58.2516052,47.8335603 58.2516052,33.6767092 C58.2516052,19.5198582 46.7752099,8.04346292 32.6183588,8.04346292 C18.4615078,8.04346292 6.98511252,19.5198582 6.98511252,33.6767092 Z" id="路径" fill="#E9EAEB"></path>
                        <polygon id="路径" fill="#FFFFFF" points="36.272631 41.5300924 40.4603119 37.3424116 56.1577648 53.0398645 51.970084 57.2279687"></polygon>
                        <path d="M51.9692373,58.7045791 L34.7943272,41.5254357 L40.4628519,35.856911 L57.6377619,53.0402879 L51.9692373,58.7045791 Z M37.7534749,41.5254357 L51.9692373,55.7454315 L54.6786142,53.0360545 L40.4586185,38.8160587 L37.7534749,41.5254357 Z" id="形状" fill="#2A5082"></path>
                        <path d="M34.4882523,34.9437663 L35.9669795,33.4650391 L40.1516969,37.6497566 L38.6729697,39.1284837 L34.4882523,34.9437663 Z M32.3939886,37.0363367 L33.8727157,35.5576095 L38.0574332,39.742327 L36.578706,41.2210541 L32.3939886,37.0363367 Z" id="形状" fill="#2A5082"></path>
                        <path d="M1.74416145,21.1246737 C1.74416145,28.0395892 5.43322479,34.4292347 11.4217173,37.8866925 C17.4102098,41.3441502 24.7883368,41.3441502 30.7768293,37.8866925 C36.7653218,34.4292347 40.4543851,28.0395892 40.4543851,21.1246737 C40.4543851,10.4351406 31.7888064,1.76956184 21.0992733,1.76956184 C10.4097402,1.76956184 1.74416145,10.4351406 1.74416145,21.1246737 Z" id="路径" fill="#D4DAEB"></path>
                        <path d="M21.0992733,41.5296762 C12.8446855,41.5365194 5.39908829,36.5693474 2.23544655,28.9450679 C-0.928195192,21.3207885 0.813387337,12.5414602 6.64784089,6.70216073 C12.4822944,0.862861288 21.2601738,-0.886009409 28.8870772,2.27130142 C36.5139805,5.42861224 41.4873351,12.8700831 41.4873351,21.1246737 C41.4756884,32.3826053 32.3571913,41.5086759 21.0992733,41.5296762 L21.0992733,41.5296762 Z M21.0992733,2.81521201 C10.9872368,2.81521201 2.78981162,11.0126372 2.78981162,21.1246737 C2.78981162,31.2367101 10.9872368,39.4341353 21.0992733,39.4341353 C31.2113097,39.4341353 39.4087349,31.2367101 39.4087349,21.1246737 C39.3970705,11.0174727 31.2064742,2.82687641 21.0992733,2.81521201 Z" id="形状" fill="#2A5082"></path>
                        <path d="M5.92676215,21.1246737 C5.92642528,26.5455144 8.81821588,31.5547219 13.5127455,34.2652395 C18.2072751,36.9757571 23.9912714,36.9757571 28.685801,34.2652395 C33.3803306,31.5547219 36.2721212,26.5455144 36.2717844,21.1246737 C36.2721212,15.703833 33.3803306,10.6946255 28.685801,7.98410786 C23.9912714,5.27359026 18.2072751,5.27359026 13.5127455,7.98410786 C8.81821588,10.6946255 5.92642528,15.703833 5.92676215,21.1246737 Z" id="路径" fill="#FFFFFF"></path>
                        <path d="M21.0992733,37.342835 C14.5392541,37.342835 8.62525636,33.3909484 6.11524136,27.3301172 C3.60522637,21.2692859 4.99355949,14.2932335 9.63279894,9.65520502 C14.2720384,5.01717653 21.248453,3.63066462 27.3086288,6.14226176 C33.3688046,8.6538589 37.3191469,14.5688882 37.3174351,21.1289071 C37.3057686,30.080428 30.050797,37.3335059 21.0992733,37.342835 L21.0992733,37.342835 Z M21.0992733,6.99781207 C13.2972239,6.99547499 6.97051808,13.3183905 6.96817949,21.1204398 C6.96584219,28.9224892 13.2887575,35.2491952 21.0908068,35.251534 C28.8928562,35.2538715 35.2195624,28.9309564 35.2219008,21.1289071 C35.2149026,13.3314103 28.8967676,7.01138138 21.0992733,7.00204617 L21.0992733,6.99781207 Z" id="形状" fill="#2A5082"></path>
                        <path d="M11.4301842,18.7582022 L9.39815139,18.2628942 C10.6846033,13.0913908 15.2052956,9.37200796 20.5277641,9.10604672 L20.6251323,11.1973471 C16.2288054,11.4158063 12.4939431,14.4869223 11.4301842,18.7582022 Z M9.40661824,23.9906865 C9.17865626,23.0538381 9.06353721,22.0930915 9.06371248,21.1289071 L11.155013,21.1289071 C11.1519796,21.925885 11.2443605,22.7203608 11.4301842,23.4953786 L9.40661824,23.9906865 Z" id="形状" fill="#2A5082"></path>
                    </g>
                    <g id="编组-3" transform="translate(60.000000, 0.000000)">
                        <path d="M31,0 C36.5228475,-1.01453063e-15 41,4.4771525 41,10 C41,15.5228475 36.5228475,20 31,20 L23.535,20 L20.5,23.0355339 L17.464,20 L10,20 C4.4771525,20 6.76353751e-16,15.5228475 0,10 C-6.76353751e-16,4.4771525 4.4771525,1.01453063e-15 10,0 L31,0 Z" id="形状结合" fill="#E4E4E4"></path>
                        <text id="Oops！" font-family="PingFangSC-Medium, PingFang SC" font-size="10" font-weight="400" line-spacing="10" letter-spacing="0.555555556" fill="#FFFFFF">
                            <tspan x="4" y="15">Oops！</tspan>
                        </text>
                    </g>
                    <g id="编组-4" transform="translate(73.000000, 38.000000)" fill="#D8D8D8">
                        <circle id="椭圆形" cx="2" cy="2" r="2"></circle>
                        <circle id="椭圆形备份" cx="8" cy="2" r="2"></circle>
                        <circle id="椭圆形备份-2" cx="14" cy="2" r="2"></circle>
                    </g>
                </g>
            </g>
        </g>
    </g>
</svg>