<?xml version="1.0" encoding="UTF-8"?>
<svg width="16px" height="16px" viewBox="0 0 16 16" version="1.1" xmlns="http://www.w3.org/2000/svg" xmlns:xlink="http://www.w3.org/1999/xlink">
    <!-- Generator: Sketch 58 (84663) - https://sketch.com -->
    <title>edit</title>
    <desc>Created with Sketch.</desc>
    <g id="1.1-UI-" stroke="none" stroke-width="1" fill="none" fill-rule="evenodd">
        <g id="照册" transform="translate(-341.000000, -103.000000)" fill-rule="nonzero">
            <g id="edit" transform="translate(339.000000, 101.000000)">
                <rect id="矩形" fill="#000000" opacity="0" x="0" y="0" width="20" height="20"></rect>
                <path d="M5.03320312,14.6875 C5.07226562,14.6875 5.11132812,14.6835938 5.15039062,14.6777344 L8.43554687,14.1015625 C8.47460937,14.09375 8.51171875,14.0761719 8.5390625,14.046875 L16.8183594,5.76757813 C16.8945312,5.69140625 16.8945312,5.56835938 16.8183594,5.4921875 L13.5722656,2.24414062 C13.5351562,2.20703125 13.4863281,2.1875 13.4335937,2.1875 C13.3808594,2.1875 13.3320312,2.20703125 13.2949219,2.24414062 L5.015625,10.5234375 C4.98632812,10.5527344 4.96875,10.5878906 4.9609375,10.6269531 L4.38476562,13.9121094 C4.34765625,14.1289062 4.4140625,14.3398437 4.56835938,14.4941406 C4.69726562,14.6191406 4.859375,14.6875 5.03320312,14.6875 L5.03320312,14.6875 Z M6.34960938,11.28125 L13.4335938,4.19921875 L14.8652344,5.63085938 L7.78125,12.7128906 L6.04492187,13.0195313 L6.34960937,11.28125 L6.34960938,11.28125 Z M17.1875,16.328125 L2.8125,16.328125 C2.46679688,16.328125 2.1875,16.6074219 2.1875,16.953125 L2.1875,17.65625 C2.1875,17.7421875 2.2578125,17.8125 2.34375,17.8125 L17.65625,17.8125 C17.7421875,17.8125 17.8125,17.7421875 17.8125,17.65625 L17.8125,16.953125 C17.8125,16.6074219 17.5332031,16.328125 17.1875,16.328125 Z" id="形状" fill="#476BE1"></path>
            </g>
        </g>
    </g>
</svg>