<?xml version="1.0" encoding="UTF-8"?>
<svg width="13px" height="21px" viewBox="0 0 13 21" version="1.1" xmlns="http://www.w3.org/2000/svg" xmlns:xlink="http://www.w3.org/1999/xlink">
    <!-- Generator: Sketch 58 (84663) - https://sketch.com -->
    <title>返回</title>
    <desc>Created with Sketch.</desc>
    <g id="1.1-UI-" stroke="none" stroke-width="1" fill="none" fill-rule="evenodd">
        <g id="照册" transform="translate(-20.000000, -55.000000)" fill-rule="nonzero">
            <g id="导航" transform="translate(0.000000, 44.000000)">
                <g id="返回" transform="translate(16.000000, 10.000000)">
                    <rect id="矩形" fill="#000000" opacity="0" x="0" y="0" width="24" height="24"></rect>
                    <path d="M15.9943358,21.367209 C15.7953427,21.367209 15.5949346,21.3006062 15.4296867,21.163635 L4.66739152,12.2480878 C4.46436916,12.079674 4.34670495,11.8296435 4.34670495,11.5657744 C4.34670495,11.3019053 4.46436916,11.0518748 4.66739152,10.883485 L15.4296867,1.9673861 C15.8063033,1.65506986 16.3649086,1.70812188 16.6772248,2.08447472 C16.9892533,2.46137918 16.9367529,3.01967266 16.5601362,3.33201288 L6.62115485,11.5657744 L16.5601362,19.7989843 C16.9367529,20.1113245 16.9892533,20.669618 16.6772248,21.0465225 C16.5018797,21.2579151 16.249259,21.367209 15.9943358,21.367209 Z" id="路径" fill="#555B68"></path>
                </g>
            </g>
        </g>
    </g>
</svg>