<?xml version="1.0" encoding="UTF-8"?>
<svg width="14px" height="16px" viewBox="0 0 14 16" version="1.1" xmlns="http://www.w3.org/2000/svg" xmlns:xlink="http://www.w3.org/1999/xlink">
    <!-- Generator: Sketch 58 (84663) - https://sketch.com -->
    <title>delete-fill</title>
    <desc>Created with Sketch.</desc>
    <g id="1.2-改" stroke="none" stroke-width="1" fill="none" fill-rule="evenodd">
        <g id="新建-自定义位置名称" transform="translate(-344.000000, -467.000000)" fill-rule="nonzero">
            <g id="删除" transform="translate(335.000000, 459.000000)">
                <g id="delete-fill" transform="translate(7.000000, 7.000000)">
                    <rect id="矩形" fill="#000000" opacity="0" x="0" y="0" width="18" height="18"></rect>
                    <path d="M6.1875,1.96875 L11.8125,1.96875 C12.3916406,1.96875 12.8697187,2.40821875 12.9308885,2.97131042 L12.9375,3.09375 L12.9375,4.5 L15.1875,4.5 C15.4675195,4.5 15.6991289,4.70360742 15.7426506,4.97114473 L15.75,5.0625 L15.75,5.625 C15.75,5.686875 15.7095,5.73975 15.6537,5.758425 L15.609375,5.765625 L14.5476563,5.765625 L14.1134766,14.9589844 C14.0872266,15.5200781 13.6551953,15.9678594 13.1089328,16.0250698 L12.9902344,16.03125 L5.00976562,16.03125 C4.4503125,16.03125 3.98120313,15.6193438 3.898275,15.0770771 L3.88652344,14.9589844 L3.45234375,5.765625 L2.390625,5.765625 C2.32875,5.765625 2.275875,5.725125 2.2572,5.669325 L2.25,5.625 L2.25,5.0625 C2.25,4.78248047 2.45360742,4.55087109 2.72114473,4.50734941 L2.8125,4.5 L5.0625,4.5 L5.0625,3.09375 C5.0625,2.51460938 5.50196875,2.03653125 6.06506042,1.97536146 L6.1875,1.96875 L11.8125,1.96875 Z M8.1,7.2 L7.2,7.2 L7.2,13.5 L8.1,13.5 L8.1,7.2 Z M10.8,7.2 L9.9,7.2 L9.9,13.5 L10.8,13.5 L10.8,7.2 Z M11.671875,3.234375 L6.328125,3.234375 L6.328125,4.5 L11.671875,4.5 L11.671875,3.234375 Z" id="形状结合" fill="#F9706B"></path>
                </g>
            </g>
        </g>
    </g>
</svg>