<?xml version="1.0" encoding="UTF-8"?>
<svg width="10px" height="12px" viewBox="0 0 10 12" version="1.1" xmlns="http://www.w3.org/2000/svg" xmlns:xlink="http://www.w3.org/1999/xlink">
    <!-- Generator: Sketch 58 (84663) - https://sketch.com -->
    <title>reload time</title>
    <desc>Created with Sketch.</desc>
    <g id="1.0-UI" stroke="none" stroke-width="1" fill="none" fill-rule="evenodd">
        <g id="时间轴" transform="translate(-114.000000, -213.000000)" fill-rule="nonzero">
            <g id="part-1" transform="translate(24.000000, 134.000000)">
                <g id="card1" transform="translate(16.000000, 38.000000)">
                    <g id="时长" transform="translate(73.000000, 40.000000)">
                        <g id="reload-time" transform="translate(0.000000, 1.000000)">
                            <rect id="矩形" fill="#000000" opacity="0" x="0" y="0" width="12" height="12"></rect>
                            <path d="M6.28242187,3.19921875 L5.71875,3.19921875 C5.6671875,3.19921875 5.625,3.24140625 5.625,3.29296875 L5.625,6.51914062 C5.625,6.54960937 5.6390625,6.57773437 5.66367187,6.5953125 L7.60078125,8.00976562 C7.64296875,8.04023438 7.7015625,8.03203125 7.73203125,7.98984375 L8.0671875,7.5328125 C8.09882813,7.48945312 8.08945312,7.43085937 8.04726562,7.4015625 L6.37617187,6.19335938 L6.37617187,3.29296875 C6.37617187,3.24140625 6.33398437,3.19921875 6.28242187,3.19921875 Z M8.85820312,4.08046875 L10.6957031,4.52929688 C10.7542969,4.54335938 10.8117187,4.49882813 10.8117187,4.4390625 L10.8210937,2.54648438 C10.8210937,2.46796875 10.7308594,2.4234375 10.6699219,2.47265625 L8.82304687,3.91523438 C8.7609375,3.96445313 8.78203125,4.06171875 8.85820312,4.08046875 Z M10.8234375,7.60898437 L10.1589844,7.38046875 C10.1109375,7.3640625 10.0582031,7.38867187 10.040625,7.43671875 C10.0183594,7.49648437 9.99492187,7.55507812 9.9703125,7.61367187 C9.76171875,8.10703125 9.46289062,8.55117187 9.08085937,8.93203125 C8.7,9.31289062 8.25585938,9.61289063 7.7625,9.82148437 C7.2515625,10.0371094 6.70898438,10.1472656 6.14882813,10.1472656 C5.58867188,10.1472656 5.04609375,10.0382812 4.53515625,9.82148437 C4.04179688,9.61289063 3.59765625,9.31289062 3.21679688,8.93203125 C2.8359375,8.55117187 2.53710938,8.10703125 2.32734375,7.61367187 C2.11289063,7.10390625 2.00390625,6.56015625 2.00390625,6 C2.00390625,5.43984375 2.11289063,4.89609375 2.3296875,4.38515625 C2.53828125,3.89179687 2.83710938,3.44765625 3.21914063,3.06679687 C3.6,2.6859375 4.04414063,2.3859375 4.5375,2.17734375 C5.04609375,1.96054688 5.58984375,1.8515625 6.15,1.8515625 C6.71015625,1.8515625 7.25273437,1.96054688 7.76367188,2.17734375 C8.25703125,2.3859375 8.70117188,2.6859375 9.08203125,3.06679688 C9.2015625,3.1875 9.3140625,3.31289063 9.4171875,3.4453125 L10.1179687,2.896875 C9.19570312,1.71796875 7.76015625,0.959765625 6.14765625,0.960936144 C3.33984375,0.962109375 1.08515625,3.24257812 1.11328125,6.0515625 C1.14140625,8.81132812 3.38554687,11.0390625 6.15,11.0390625 C8.32382813,11.0390625 10.1753906,9.6609375 10.8808594,7.73085938 C10.8984375,7.68164062 10.8726562,7.6265625 10.8234375,7.60898437 Z" id="形状" fill="#979CA8"></path>
                        </g>
                    </g>
                </g>
            </g>
        </g>
    </g>
</svg>